<?xml version="1.0" encoding="UTF-8"?>
<svg width="68px" height="68px" viewBox="0 0 68 68" version="1.1" xmlns="http://www.w3.org/2000/svg" xmlns:xlink="http://www.w3.org/1999/xlink">
    <!-- Generator: Sketch 53.2 (72643) - https://sketchapp.com -->
    <title>Group 18</title>
    <desc>Created with Sketch.</desc>
    <g id="Page-1" stroke="none" stroke-width="1" fill="none" fill-rule="evenodd">
        <g id="Group-18">
            <rect id="Rectangle" fill="#FFFFFF" x="0" y="0" width="68" height="68"></rect>
            <g id="Без-названия" transform="translate(0.000000, 30.000000)" fill="#000000" fill-rule="nonzero">
                <path d="M3.95847928,34.8622716 L3.95847928,3.26876288 C3.95847928,1.48442856 5.39334014,0.0330361388 7.15735065,0.0330361388 L60.8426493,0.0330361388 C62.6066599,0.0330361388 64.0415207,1.48442856 64.0415207,3.26876288 L64.0415207,34.8622716 L61.7672456,34.8622716 L61.7672456,2.44644659 L6.23358144,2.44644659 L6.23358144,34.8622716 L3.95847928,34.8622716 Z M39.0497178,34.8622716 C38.9637089,35.2889057 38.5923818,35.6092995 38.1466239,35.6092995 L29.8542032,35.6092995 C29.4084452,35.6092995 29.0371181,35.2889057 28.9511092,34.8622716 L0,34.8622716 L0,35.6385783 C0,36.8063845 0.935347344,37.7525084 2.0890251,37.7525084 L65.9109749,37.7525084 C67.0654797,37.7525084 68,36.8063845 68,35.6385783 L68,34.8622716 L39.0497178,34.8622716 Z" id="Shape"></path>
            </g>
        </g>
    </g>
</svg>