<?xml version="1.0" encoding="UTF-8"?>
<svg width="19px" height="29px" viewBox="0 0 19 29" version="1.1" xmlns="http://www.w3.org/2000/svg" xmlns:xlink="http://www.w3.org/1999/xlink">
    <!-- Generator: Sketch 53.2 (72643) - https://sketchapp.com -->
    <title>Combined Shape</title>
    <desc>Created with Sketch.</desc>
    <g id="Page-1" stroke="none" stroke-width="1" fill="none" fill-rule="evenodd">
        <g id="Artboard-Copy" transform="translate(-356.000000, -267.000000)" fill="#F69845">
            <g id="Group-9" transform="translate(312.000000, 128.000000)">
                <g id="Group-5" transform="translate(44.000000, 137.000000)">
                    <path d="M1.18741683,15.7448628 C0.431448045,14.4074196 0,12.862279 0,11.2163683 C0,6.12630863 4.12630863,2 9.21636828,2 C14.3064279,2 18.4327366,6.12630863 18.4327366,11.2163683 C18.4327366,12.8618205 18.0015289,14.4065587 17.2459515,15.743745 L9.21636828,31 L1.18741683,15.7448628 Z M9.21636828,14.5677749 C11.0672991,14.5677749 12.5677749,13.0672991 12.5677749,11.2163683 C12.5677749,9.3654375 11.0672991,7.86496163 9.21636828,7.86496163 C7.3654375,7.86496163 5.86496163,9.3654375 5.86496163,11.2163683 C5.86496163,13.0672991 7.3654375,14.5677749 9.21636828,14.5677749 Z" id="Combined-Shape"></path>
                </g>
            </g>
        </g>
    </g>
</svg>