<?xml version="1.0" encoding="UTF-8"?>
<svg width="34px" height="19px" viewBox="0 0 34 19" version="1.1" xmlns="http://www.w3.org/2000/svg" xmlns:xlink="http://www.w3.org/1999/xlink">
    <!-- Generator: Sketch 53.2 (72643) - https://sketchapp.com -->
    <title>Group 3</title>
    <desc>Created with Sketch.</desc>
    <g id="Page-1" stroke="none" stroke-width="1" fill="none" fill-rule="evenodd">
        <g id="prototype" transform="translate(-1332.000000, -3040.000000)">
            <g id="Group-3" transform="translate(1317.000000, 3017.000000)">
                <rect id="Rectangle" x="0" y="0" width="64" height="64"></rect>
                <path d="M15,36.0004883 L17.6977539,36.0004883 C17.8930664,37.7460938 19.5898438,38.8935547 21.9091797,38.8935547 C24.1308594,38.8935547 25.7299805,37.7460938 25.7299805,36.1713867 C25.7299805,34.8041992 24.765625,33.9863281 22.4829102,33.4248047 L20.2001953,32.8754883 C16.965332,32.0942383 15.4638672,30.5805664 15.4638672,28.1269531 C15.4638672,25.0874023 18.112793,23 21.8725586,23 C25.5957031,23 28.1469727,25.0874023 28.2324219,28.1269531 L25.5712891,28.1269531 C25.4125977,26.3691406 23.9599609,25.3071289 21.8359375,25.3071289 C19.7119141,25.3071289 18.2592773,26.3813477 18.2592773,27.9438477 C18.2592773,29.1889648 19.1870117,29.9213867 21.4575195,30.4829102 L23.3984375,30.9589844 C27.0117188,31.8134766 28.5131836,33.2661133 28.5131836,35.8417969 C28.5131836,39.1376953 25.8886719,41.2006836 21.7138672,41.2006836 C17.8076172,41.2006836 15.1708984,39.1865234 15,36.0004883 Z M48.0390626,23.2929688 L48.0390626,40.9077148 L45.5366212,40.9077148 L45.5366212,27.9438477 L45.451172,27.9438477 L40.1411134,40.7734375 L38.1147462,40.7734375 L32.7924806,27.9438477 L32.7070314,27.9438477 L32.7070314,40.9077148 L30.216797,40.9077148 L30.216797,23.2929688 L33.3784181,23.2929688 L39.0791017,37.1967773 L39.1767579,37.1967773 L44.8652345,23.2929688 L48.0390626,23.2929688 Z" id="SM" fill="#FFFFFF" fill-rule="nonzero"></path>
            </g>
        </g>
    </g>
</svg>