<?xml version="1.0" encoding="UTF-8"?>
<svg width="32px" height="40px" viewBox="0 0 32 40" version="1.1" xmlns="http://www.w3.org/2000/svg" xmlns:xlink="http://www.w3.org/1999/xlink">
    <!-- Generator: Sketch 53.2 (72643) - https://sketchapp.com -->
    <title>apple-seeklogo.com</title>
    <desc>Created with Sketch.</desc>
    <g id="Page-1" stroke="none" stroke-width="1" fill="none" fill-rule="evenodd">
        <g id="a" transform="translate(-212.000000, -209.000000)" fill="#C4C4C4" fill-rule="nonzero">
            <g id="Group-6" transform="translate(212.000000, 209.000000)">
                <g id="apple-seeklogo.com">
                    <path d="M26.7254243,21.2507428 C26.78065,27.3040091 31.9428103,29.3183836 32,29.3440945 C31.9563515,29.4861593 31.1751729,32.2147754 29.2803288,35.0332409 C27.6423194,37.4699472 25.9422816,39.8977273 23.2642199,39.9480087 C20.6327564,39.9973594 19.786594,38.3597505 16.7780863,38.3597505 C13.7704873,38.3597505 12.8303624,39.8977232 10.3393891,39.9973594 C7.75438009,40.0969227 5.78592289,37.3623844 4.13430099,34.9346043 C0.759411646,29.9684983 -1.81970211,20.9015554 1.64339575,14.781221 C3.36378889,11.7418381 6.43826146,9.81717396 9.77532656,9.76781954 C12.3137393,9.71853661 14.7096993,11.505996 16.2614631,11.505996 C17.8122431,11.505996 20.7238444,9.35641945 23.7847034,9.67211194 C25.0660835,9.7263941 28.6629386,10.1989361 30.9725781,13.6398628 C30.7864781,13.7572857 26.6807938,16.1899905 26.7254243,21.2507485 M21.7798927,6.38659948 C23.1522914,4.6957772 24.0759947,2.34199623 23.8239985,0 C21.845789,0.0809223698 19.4536892,1.34170284 18.0347636,3.03159487 C16.7631337,4.52807297 15.6494719,6.92328161 15.9499571,9.21892466 C18.1549039,9.39255688 20.4074266,8.07849701 21.7798927,6.38660222" id="Shape"></path>
                </g>
            </g>
        </g>
    </g>
</svg>