<?xml version="1.0" encoding="UTF-8"?>
<svg width="24px" height="22px" viewBox="0 0 24 22" version="1.1" xmlns="http://www.w3.org/2000/svg" xmlns:xlink="http://www.w3.org/1999/xlink">
    <!-- Generator: Sketch 53.2 (72643) - https://sketchapp.com -->
    <title>filter</title>
    <desc>Created with Sketch.</desc>
    <g id="Page-1" stroke="none" stroke-width="1" fill="none" fill-rule="evenodd">
        <g id="a" transform="translate(-979.000000, -368.000000)" fill="#0070C9" fill-rule="nonzero">
            <g id="filter" transform="translate(979.000000, 368.000000)">
                <path d="M23.9305547,0.414835924 C23.8104871,0.161555492 23.5541552,0 23.2726072,0 L0.727430975,0 C0.445882981,0 0.189648121,0.161555492 0.0694834759,0.414835924 C-0.0505841839,0.668116355 -0.0129539318,0.967500384 0.166177706,1.18355071 L8.83287088,11.6373002 L8.83287088,21.2766172 C8.83287088,21.5269076 8.96292801,21.7593547 9.17668336,21.8912997 C9.29384146,21.9635415 9.42680815,22 9.56025977,22 C9.67053193,22 9.78119202,21.9750192 9.88322044,21.9247682 L14.7526526,19.5245841 C15.0000618,19.4026699 15.1565959,19.1519937 15.1569839,18.8773976 L15.1664884,11.6375896 L23.8336665,1.18345426 C24.0128951,0.967500384 24.0506224,0.668019904 23.9305547,0.414835924 Z M13.8783312,10.9172932 C13.7711626,11.0465376 13.7123895,11.2088647 13.7121956,11.3764966 L13.702885,18.427357 L10.2877456,20.110717 L10.2877456,11.3774611 C10.2877456,11.2095399 10.2290696,11.046827 10.12161,10.9172932 L2.26988337,1.44666915 L21.7300578,1.44666915 L13.8783312,10.9172932 Z" id="Shape"></path>
            </g>
        </g>
    </g>
</svg>