<svg xmlns="http://www.w3.org/2000/svg" width="19.301" height="19" viewBox="0 0 19.301 19">
  <g id="Group_155" data-name="Group 155" transform="translate(-54 -428)">
    <g id="Group_126" data-name="Group 126" opacity="0.55">
      <g id="Path_209" data-name="Path 209" transform="translate(54 428)" fill="none">
        <path d="M9.5,0A9.5,9.5,0,1,1,0,9.5,9.5,9.5,0,0,1,9.5,0Z" stroke="none"/>
        <path d="M 9.5 1 C 4.813079833984375 1 1 4.813079833984375 1 9.5 C 1 14.18692016601563 4.813079833984375 18 9.5 18 C 14.18692016601563 18 18 14.18692016601563 18 9.5 C 18 4.813079833984375 14.18692016601563 1 9.5 1 M 9.5 0 C 14.74670028686523 0 19 4.253299713134766 19 9.5 C 19 14.74670028686523 14.74670028686523 19 9.5 19 C 4.253299713134766 19 0 14.74670028686523 0 9.5 C 0 4.253299713134766 4.253299713134766 0 9.5 0 Z" stroke="none" fill="#0a0907"/>
      </g>
      <path id="Path_207" data-name="Path 207" d="M6746.435,317.347a1.329,1.329,0,0,1,.352,1.543c-.469.723-1.6.137-1.6.137l3.641,4.9s-.611-1.319.273-1.739a1.513,1.513,0,0,1,.9.112,2.114,2.114,0,0,1,.681.747s-.143-4.472-.255-5.507S6746.435,317.347,6746.435,317.347Z" transform="translate(-6678 112)" fill="#fff"/>
    </g>
    <path id="Path_208" data-name="Path 208" d="M6943.5,2.261l4.9,4.432,8.471-10.141" transform="translate(-6884.572 433.251)" fill="none" stroke="#7ebb55" stroke-linecap="round" stroke-linejoin="round" stroke-width="2"/>
  </g>
</svg>
