<svg xmlns="http://www.w3.org/2000/svg" width="18" height="25.322" viewBox="0 0 18 25.322">
  <g id="map-point-pointer" transform="translate(0)">
    <g id="Group_63" data-name="Group 63">
      <path id="Path_117" data-name="Path 117" d="M169.74,114.467a4.131,4.131,0,1,0,4.131,4.131A4.131,4.131,0,0,0,169.74,114.467Zm0,6.412a2.281,2.281,0,1,1,2.281-2.281A2.286,2.286,0,0,1,169.74,120.879Z" transform="translate(-160.74 -108.571)" fill="#ffb500"/>
      <path id="Path_118" data-name="Path 118" d="M85.451,2.97A8.916,8.916,0,0,0,78.575,0c-5.733,0-8.733,4.663-8.733,9.267,0,6.03,8.243,15.342,8.6,15.743a.862.862,0,0,0,.653.312h.015a.926.926,0,0,0,.653-.3,44.314,44.314,0,0,0,4.01-5.153c2.7-4.04,4.069-7.619,4.069-10.619A9.591,9.591,0,0,0,85.451,2.97ZM79.124,23.035c-1.931-2.317-7.485-9.342-7.485-13.782,0-3.594,2.183-7.47,6.951-7.47a7.312,7.312,0,0,1,7.47,7.47C86.06,14.48,80.966,20.881,79.124,23.035Z" transform="translate(-69.842)" fill="#ffb500"/>
    </g>
  </g>
</svg>
