<svg xmlns="http://www.w3.org/2000/svg" width="19" height="19" viewBox="0 0 19 19">
  <g id="In_stock" data-name="In stock" transform="translate(-54 -428)">
    <g id="Group_126" data-name="Group 126" opacity="0.55">
      <g id="Path_209" data-name="Path 209" transform="translate(54 428)" fill="none">
        <path d="M9.5,0A9.5,9.5,0,1,1,0,9.5,9.5,9.5,0,0,1,9.5,0Z" stroke="none"/>
        <path d="M 9.5 1 C 4.813079833984375 1 1 4.813079833984375 1 9.5 C 1 14.18692016601562 4.813079833984375 18 9.5 18 C 14.18692016601562 18 18 14.18692016601562 18 9.5 C 18 4.813079833984375 14.18692016601562 1 9.5 1 M 9.5 0 C 14.74670028686523 0 19 4.253299713134766 19 9.5 C 19 14.74670028686523 14.74670028686523 19 9.5 19 C 4.253299713134766 19 0 14.74670028686523 0 9.5 C 0 4.253299713134766 4.253299713134766 0 9.5 0 Z" stroke="none" fill="#0a0907"/>
      </g>
    </g>
    <g id="Group_152" data-name="Group 152" transform="translate(1 0.885)">
      <path id="Path_231" data-name="Path 231" d="M54,428l9.358,9.358" transform="translate(3.921 3.921)" fill="none" stroke="#ee4f3f" stroke-linecap="round" stroke-width="2"/>
      <path id="Path_232" data-name="Path 232" d="M0,0,9.358,9.358" transform="translate(67.279 431.921) rotate(90)" fill="none" stroke="#ee4f3f" stroke-linecap="round" stroke-width="2"/>
    </g>
  </g>
</svg>
