<?xml version="1.0" encoding="UTF-8"?>
<svg width="24px" height="17px" viewBox="0 0 24 17" version="1.1" xmlns="http://www.w3.org/2000/svg" xmlns:xlink="http://www.w3.org/1999/xlink">
    <!-- Generator: Sketch 53.2 (72643) - https://sketchapp.com -->
    <title>14</title>
    <desc>Created with Sketch.</desc>
    <g id="Page-1" stroke="none" stroke-width="1" fill="none" fill-rule="evenodd">
        <g id="Artboard" transform="translate(-4421.000000, -2598.000000)" fill="#3EA6FF" fill-rule="nonzero">
            <path d="M4425.58984,2615 L4425.58984,2600.69141 L4425.53125,2600.69141 L4421.11328,2603.83203 L4421.11328,2601.25391 L4425.56641,2598.08984 L4428.15625,2598.08984 L4428.15625,2615 L4425.58984,2615 Z M4439.58859,2615 L4439.58859,2611.66016 L4431.12766,2611.66016 L4431.12766,2609.36328 C4432.58078,2606.63281 4434.50266,2603.59766 4438.31125,2598.08984 L4442.10813,2598.08984 L4442.10813,2609.45703 L4444.42844,2609.45703 L4444.42844,2611.66016 L4442.10813,2611.66016 L4442.10813,2615 L4439.58859,2615 Z M4433.57688,2609.43359 L4433.57688,2609.49219 L4439.61203,2609.49219 L4439.61203,2600.11719 L4439.56516,2600.11719 C4436.63547,2604.34766 4434.92453,2606.98438 4433.57688,2609.43359 Z" id="14"></path>
        </g>
    </g>
</svg>