<svg xmlns="http://www.w3.org/2000/svg" width="12.079" height="12.078" viewBox="0 0 12.079 12.078">
  <path id="ic_shopping_cart_24px" d="M4.624,11.663a1.208,1.208,0,1,0,1.208,1.208A1.206,1.206,0,0,0,4.624,11.663ZM1,2V3.208H2.208L4.382,7.792l-.815,1.48a1.168,1.168,0,0,0-.151.58,1.211,1.211,0,0,0,1.208,1.208h7.247V9.851H4.877A.15.15,0,0,1,4.726,9.7l.018-.072.544-.984h4.5a1.2,1.2,0,0,0,1.057-.622L13.006,4.1a.59.59,0,0,0,.072-.29.606.606,0,0,0-.6-.6H3.543L2.975,2H1Zm9.663,9.663a1.208,1.208,0,1,0,1.208,1.208A1.206,1.206,0,0,0,10.663,11.663Z" transform="translate(-1 -2)" fill="#feffff"/>
</svg>
