<svg xmlns="http://www.w3.org/2000/svg" width="14" height="14.012" viewBox="0 0 14 14.012">
  <g id="telephone-call-receiver" transform="translate(0 0)">
    <g id="Group_16" data-name="Group 16">
      <path id="Path_26" data-name="Path 26" d="M1.41,13.085a.955.955,0,0,0,.1.081l.5.306c.018.009.045.027.063.036a5.988,5.988,0,0,0,2.422.5A5.073,5.073,0,0,0,8.128,12.6L12.8,7.925a5.514,5.514,0,0,0,.874-6.043A.364.364,0,0,0,13.63,1.8l-.315-.477c-.018-.027-.045-.054-.063-.081L12.414.405A1.378,1.378,0,0,0,11.442,0a1.269,1.269,0,0,0-.892.369L8.119,2.8a1.324,1.324,0,0,0,.027,1.873l.955.955L5.85,8.879l-.973-.973a1.225,1.225,0,0,0-.928-.4,1.318,1.318,0,0,0-.919.378L.6,10.32a1.438,1.438,0,0,0-.405.937,1.3,1.3,0,0,0,.369.982Zm-.045-2L3.8,8.654a.232.232,0,0,1,.333.018L5.48,10.023a.549.549,0,0,0,.765,0l4.007-4.007a.556.556,0,0,0,.162-.378.518.518,0,0,0-.162-.378L8.92,3.908a.255.255,0,0,1-.027-.351l2.431-2.431a.164.164,0,0,1,.126-.054.31.31,0,0,1,.207.09l.792.792.261.4a4.383,4.383,0,0,1-.666,4.791L7.371,11.833a4.006,4.006,0,0,1-2.882,1.1,4.878,4.878,0,0,1-1.945-.4l-.414-.252-.8-.8a.237.237,0,0,1-.054-.171A.426.426,0,0,1,1.365,11.085Z" transform="translate(-0.193)" fill="#7ebb55"/>
    </g>
  </g>
</svg>
