<?xml version="1.0" encoding="UTF-8"?>
<svg width="152px" height="25px" viewBox="0 0 152 25" version="1.1" xmlns="http://www.w3.org/2000/svg" xmlns:xlink="http://www.w3.org/1999/xlink">
    <!-- Generator: Sketch 53.2 (72643) - https://sketchapp.com -->
    <title>iMac2018.</title>
    <desc>Created with Sketch.</desc>
    <g id="Page-1" stroke="none" stroke-width="1" fill="none" fill-rule="evenodd">
        <g id="Group-15-Copy-2" transform="translate(-38.000000, -97.000000)" fill="#000000" fill-rule="nonzero">
            <g id="watch_os__feuuhi6tkwyi_large_2x">
                <path d="M38.765625,121 L38.765625,103.921875 L42.65625,103.921875 L42.65625,121 L38.765625,121 Z M40.703125,101.75 C39.5,101.75 38.515625,100.8125 38.515625,99.609375 C38.515625,98.390625 39.5,97.46875 40.703125,97.46875 C41.921875,97.46875 42.890625,98.390625 42.890625,99.609375 C42.890625,100.8125 41.921875,101.75 40.703125,101.75 Z M69.231875,98.453125 L69.231875,121 L65.606875,121 L65.606875,105 L65.4975,105 L58.981875,120.8125 L56.231875,120.8125 L49.71625,105 L49.606875,105 L49.606875,121 L45.96625,121 L45.96625,98.453125 L50.638125,98.453125 L57.544375,115.46875 L57.669375,115.46875 L64.575625,98.453125 L69.231875,98.453125 Z M78.62,118.203125 C80.979375,118.203125 82.77625,116.734375 82.77625,114.65625 L82.77625,113.359375 L78.87,113.609375 C76.745,113.75 75.62,114.5625 75.62,115.953125 C75.62,117.328125 76.8075,118.203125 78.62,118.203125 Z M77.479375,121.1875 C74.12,121.1875 71.71375,119.140625 71.71375,116.109375 C71.71375,113.0625 74.041875,111.328125 78.33875,111.0625 L82.77625,110.796875 L82.77625,109.546875 C82.77625,107.734375 81.5575,106.75 79.46375,106.75 C77.698125,106.75 76.4325,107.671875 76.166875,109.046875 L72.573125,109.046875 C72.666875,105.921875 75.573125,103.6875 79.58875,103.6875 C83.854375,103.6875 86.62,105.90625 86.62,109.296875 L86.62,121 L82.885625,121 L82.885625,118.25 L82.791875,118.25 C81.854375,120.078125 79.745,121.1875 77.479375,121.1875 Z M104.39875,109.96875 L100.726875,109.96875 C100.445625,108.171875 99.101875,106.859375 96.914375,106.859375 C94.351875,106.859375 92.68,109.015625 92.68,112.453125 C92.68,116 94.3675,118.078125 96.93,118.078125 C99.008125,118.078125 100.383125,117 100.7425,115.0625 L104.414375,115.0625 C104.08625,118.796875 101.164375,121.25 96.89875,121.25 C91.945625,121.25 88.726875,117.90625 88.726875,112.453125 C88.726875,107.109375 91.93,103.6875 96.8675,103.6875 C101.33625,103.6875 104.133125,106.453125 104.39875,109.96875 Z M112.89375,105.140625 C112.89375,100.984375 116.221875,98 120.89375,98 C125.39375,98 128.6125,100.75 128.6125,104.40625 C128.6125,107.09375 127.01875,109.125 124.065625,112.109375 L118.4875,117.625 L118.4875,117.703125 L128.95625,117.703125 L128.95625,121 L113.1125,121 L113.1125,118.28125 L121.409375,110.03125 C123.971875,107.421875 124.675,106.265625 124.675,104.578125 C124.675,102.71875 123.003125,101.234375 120.76875,101.234375 C118.425,101.234375 116.675,102.890625 116.675,105.125 L116.675,105.1875 L112.89375,105.1875 L112.89375,105.140625 Z M139.985,121.453125 C134.45375,121.453125 131.156875,116.9375 131.156875,109.703125 C131.156875,102.5 134.485,98 139.985,98 C145.469375,98 148.781875,102.46875 148.781875,109.6875 C148.781875,116.90625 145.500625,121.453125 139.985,121.453125 Z M139.985,118.15625 C142.969375,118.15625 144.70375,115.015625 144.70375,109.703125 C144.70375,104.4375 142.938125,101.296875 139.985,101.296875 C137.01625,101.296875 135.219375,104.46875 135.219375,109.6875 C135.219375,115 136.985,118.15625 139.985,118.15625 Z M156.82625,121 L156.82625,102.296875 L156.7325,102.296875 L150.904375,106.390625 L150.904375,102.59375 L156.795,98.453125 L160.779375,98.453125 L160.779375,121 L156.82625,121 Z M174.089375,121.453125 C168.870625,121.453125 165.308125,118.75 165.308125,114.90625 C165.308125,111.984375 167.370625,109.6875 170.433125,109.109375 L170.433125,109.03125 C167.870625,108.375 166.19875,106.390625 166.19875,103.9375 C166.19875,100.515625 169.495625,98 174.089375,98 C178.69875,98 181.964375,100.5 181.964375,103.953125 C181.964375,106.375 180.308125,108.34375 177.745625,109.03125 L177.745625,109.109375 C180.808125,109.703125 182.88625,112 182.88625,114.90625 C182.88625,118.765625 179.276875,121.453125 174.089375,121.453125 Z M174.089375,118.375 C176.7925,118.375 178.69875,116.78125 178.69875,114.609375 C178.69875,112.40625 176.7925,110.828125 174.089375,110.828125 C171.38625,110.828125 169.48,112.421875 169.48,114.609375 C169.48,116.78125 171.38625,118.375 174.089375,118.375 Z M174.089375,107.75 C176.355,107.75 177.98,106.34375 177.98,104.40625 C177.98,102.453125 176.370625,101.046875 174.089375,101.046875 C171.7925,101.046875 170.183125,102.453125 170.183125,104.40625 C170.183125,106.34375 171.7925,107.75 174.089375,107.75 Z M187.774375,121.171875 C186.50875,121.171875 185.524375,120.1875 185.524375,118.921875 C185.524375,117.65625 186.50875,116.671875 187.774375,116.671875 C189.024375,116.671875 190.00875,117.65625 190.00875,118.921875 C190.00875,120.1875 189.024375,121.171875 187.774375,121.171875 Z" id="iMac2018."></path>
            </g>
        </g>
    </g>
</svg>