<?xml version="1.0" encoding="UTF-8"?>
<svg width="21px" height="21px" viewBox="0 0 21 21" version="1.1" xmlns="http://www.w3.org/2000/svg" xmlns:xlink="http://www.w3.org/1999/xlink">
    <!-- Generator: Sketch 53.2 (72643) - https://sketchapp.com -->
    <title>settings-5-fill</title>
    <desc>Created with Sketch.</desc>
    <g id="Page-1" stroke="none" stroke-width="1" fill="none" fill-rule="evenodd">
        <g id="a-copy-2" transform="translate(-1126.000000, -168.000000)">
            <g id="Group-2-Copy-6" transform="translate(1112.000000, 159.000000)">
                <g id="settings-5-fill" transform="translate(13.000000, 7.500000)">
                    <polygon id="Path" points="0 0 23.6287307 0 23.6287307 23.6287307 0 23.6287307"></polygon>
                    <path d="M2.09901891,10.2095807 C3.18397146,10.2351785 4.1586566,9.71534643 4.53770082,8.80071765 C4.91674504,7.88510434 4.59480359,6.82771864 3.80914829,6.08046003 C4.43571633,5.20352701 5.20281422,4.43609648 6.0794755,3.80914829 C6.82771864,4.59480359 7.88510434,4.91674504 8.80071765,4.53770082 C9.71633097,4.1586566 10.2351785,3.18298693 10.2085962,2.09901891 C11.2718077,1.92220191 12.356923,1.92220191 13.4201345,2.09901891 C13.3935522,3.18397146 13.9133843,4.1586566 14.828013,4.53770082 C15.7436264,4.91674504 16.801012,4.59480359 17.5482707,3.80914829 C18.4252037,4.43571633 19.1926342,5.20281422 19.8195824,6.0794755 C19.0339271,6.82771864 18.7119856,7.88510434 19.0910299,8.80071765 C19.4700741,9.71633097 20.4457438,10.2351785 21.5297118,10.2085962 C21.7065288,11.2718077 21.7065288,12.356923 21.5297118,13.4201345 C20.4447592,13.3935522 19.4700741,13.9133843 19.0910299,14.828013 C18.7119856,15.7436264 19.0339271,16.801012 19.8195824,17.5482707 C19.1930144,18.4252037 18.4259165,19.1926342 17.5492552,19.8195824 C16.801012,19.0339271 15.7436264,18.7119856 14.828013,19.0910299 C13.9123997,19.4700741 13.3935522,20.4457438 13.4201345,21.5297118 C12.356923,21.7065288 11.2718077,21.7065288 10.2085962,21.5297118 C10.2351785,20.4447592 9.71534643,19.4700741 8.80071765,19.0910299 C7.88510434,18.7119856 6.82771864,19.0339271 6.08046003,19.8195824 C5.20352701,19.1930144 4.43609648,18.4259165 3.80914829,17.5492552 C4.59480359,16.801012 4.91674504,15.7436264 4.53770082,14.828013 C4.1586566,13.9123997 3.18298693,13.3935522 2.09901891,13.4201345 C1.92242015,12.3565812 1.92242015,11.2721494 2.09901891,10.2095807 Z M11.8144472,16.9927495 C14.6743898,16.9927495 16.9928314,14.674308 16.9928314,11.8143653 C16.9928314,8.95442273 14.6743898,6.63598117 11.8144472,6.63598117 C8.95450457,6.63598117 6.63606301,8.95442273 6.63606301,11.8143653 C6.63606301,14.674308 8.95450457,16.9927495 11.8144472,16.9927495 Z" id="Shape" fill="#FFFFFF" fill-rule="nonzero"></path>
                </g>
            </g>
        </g>
    </g>
</svg>