<?xml version="1.0" encoding="UTF-8"?>
<svg width="200px" height="25px" viewBox="0 0 200 25" version="1.1" xmlns="http://www.w3.org/2000/svg" xmlns:xlink="http://www.w3.org/1999/xlink">
    <!-- Generator: Sketch 53.2 (72643) - https://sketchapp.com -->
    <title>iPadPro2018.</title>
    <desc>Created with Sketch.</desc>
    <g id="Page-1" stroke="none" stroke-width="1" fill="none" fill-rule="evenodd">
        <g id="Group-15-Copy" transform="translate(-38.000000, -97.000000)" fill="#000000" fill-rule="nonzero">
            <g id="watch_os__feuuhi6tkwyi_large_2x">
                <path d="M39.04875,121 L39.04875,103.921875 L42.939375,103.921875 L42.939375,121 L39.04875,121 Z M40.98625,101.75 C39.783125,101.75 38.79875,100.8125 38.79875,99.609375 C38.79875,98.390625 39.783125,97.46875 40.98625,97.46875 C42.205,97.46875 43.17375,98.390625 43.17375,99.609375 C43.17375,100.8125 42.205,101.75 40.98625,101.75 Z M46.249375,98.453125 L55.343125,98.453125 C59.811875,98.453125 62.92125,101.5 62.92125,106 C62.92125,110.5 59.73375,113.546875 55.17125,113.546875 L50.280625,113.546875 L50.280625,121 L46.249375,121 L46.249375,98.453125 Z M50.280625,101.75 L50.280625,110.296875 L54.265,110.296875 C57.155625,110.296875 58.8275,108.734375 58.8275,106 C58.8275,103.296875 57.17125,101.75 54.280625,101.75 L50.280625,101.75 Z M70.059375,118.203125 C72.41875,118.203125 74.215625,116.734375 74.215625,114.65625 L74.215625,113.359375 L70.309375,113.609375 C68.184375,113.75 67.059375,114.5625 67.059375,115.953125 C67.059375,117.328125 68.246875,118.203125 70.059375,118.203125 Z M68.91875,121.1875 C65.559375,121.1875 63.153125,119.140625 63.153125,116.109375 C63.153125,113.0625 65.48125,111.328125 69.778125,111.0625 L74.215625,110.796875 L74.215625,109.546875 C74.215625,107.734375 72.996875,106.75 70.903125,106.75 C69.1375,106.75 67.871875,107.671875 67.60625,109.046875 L64.0125,109.046875 C64.10625,105.921875 67.0125,103.6875 71.028125,103.6875 C75.29375,103.6875 78.059375,105.90625 78.059375,109.296875 L78.059375,121 L74.325,121 L74.325,118.25 L74.23125,118.25 C73.29375,120.078125 71.184375,121.1875 68.91875,121.1875 Z M87.275625,121.1875 C83.01,121.1875 80.16625,117.765625 80.16625,112.453125 C80.16625,107.15625 83.025625,103.734375 87.26,103.734375 C89.72875,103.734375 91.650625,104.90625 92.5725,106.796875 L92.66625,106.796875 L92.66625,97.40625 L96.556875,97.40625 L96.556875,121 L92.744375,121 L92.744375,118.09375 L92.66625,118.09375 C91.744375,120 89.775625,121.1875 87.275625,121.1875 Z M88.41625,106.96875 C85.838125,106.96875 84.150625,109.125 84.150625,112.46875 C84.150625,115.828125 85.838125,117.953125 88.41625,117.953125 C90.994375,117.953125 92.681875,115.78125 92.681875,112.46875 C92.681875,109.171875 90.97875,106.96875 88.41625,106.96875 Z M106.5675,98.453125 L115.66125,98.453125 C120.13,98.453125 123.239375,101.5 123.239375,106 C123.239375,110.5 120.051875,113.546875 115.489375,113.546875 L110.59875,113.546875 L110.59875,121 L106.5675,121 L106.5675,98.453125 Z M110.59875,101.75 L110.59875,110.296875 L114.583125,110.296875 C117.47375,110.296875 119.145625,108.734375 119.145625,106 C119.145625,103.296875 117.489375,101.75 114.59875,101.75 L110.59875,101.75 Z M125.40875,121 L125.40875,103.921875 L129.143125,103.921875 L129.143125,106.890625 L129.22125,106.890625 C129.768125,104.890625 131.299375,103.734375 133.315,103.734375 C133.830625,103.734375 134.268125,103.796875 134.565,103.890625 L134.565,107.421875 C134.236875,107.296875 133.6275,107.203125 132.955625,107.203125 C130.674375,107.203125 129.299375,108.6875 129.299375,111.09375 L129.299375,121 L125.40875,121 Z M143.078125,121.25 C138.046875,121.25 134.859375,117.90625 134.859375,112.453125 C134.859375,107.0625 138.078125,103.6875 143.078125,103.6875 C148.109375,103.6875 151.3125,107.046875 151.3125,112.453125 C151.3125,117.90625 148.140625,121.25 143.078125,121.25 Z M143.078125,118.140625 C145.765625,118.140625 147.359375,116.046875 147.359375,112.46875 C147.359375,108.890625 145.75,106.796875 143.078125,106.796875 C140.421875,106.796875 138.8125,108.90625 138.8125,112.46875 C138.8125,116.046875 140.421875,118.140625 143.078125,118.140625 Z M159.979375,105.140625 C159.979375,100.984375 163.3075,98 167.979375,98 C172.479375,98 175.698125,100.75 175.698125,104.40625 C175.698125,107.09375 174.104375,109.125 171.15125,112.109375 L165.573125,117.625 L165.573125,117.703125 L176.041875,117.703125 L176.041875,121 L160.198125,121 L160.198125,118.28125 L168.495,110.03125 C171.0575,107.421875 171.760625,106.265625 171.760625,104.578125 C171.760625,102.71875 170.08875,101.234375 167.854375,101.234375 C165.510625,101.234375 163.760625,102.890625 163.760625,105.125 L163.760625,105.1875 L159.979375,105.1875 L159.979375,105.140625 Z M187.070625,121.453125 C181.539375,121.453125 178.2425,116.9375 178.2425,109.703125 C178.2425,102.5 181.570625,98 187.070625,98 C192.555,98 195.8675,102.46875 195.8675,109.6875 C195.8675,116.90625 192.58625,121.453125 187.070625,121.453125 Z M187.070625,118.15625 C190.055,118.15625 191.789375,115.015625 191.789375,109.703125 C191.789375,104.4375 190.02375,101.296875 187.070625,101.296875 C184.101875,101.296875 182.305,104.46875 182.305,109.6875 C182.305,115 184.070625,118.15625 187.070625,118.15625 Z M203.911875,121 L203.911875,102.296875 L203.818125,102.296875 L197.99,106.390625 L197.99,102.59375 L203.880625,98.453125 L207.865,98.453125 L207.865,121 L203.911875,121 Z M221.175,121.453125 C215.95625,121.453125 212.39375,118.75 212.39375,114.90625 C212.39375,111.984375 214.45625,109.6875 217.51875,109.109375 L217.51875,109.03125 C214.95625,108.375 213.284375,106.390625 213.284375,103.9375 C213.284375,100.515625 216.58125,98 221.175,98 C225.784375,98 229.05,100.5 229.05,103.953125 C229.05,106.375 227.39375,108.34375 224.83125,109.03125 L224.83125,109.109375 C227.89375,109.703125 229.971875,112 229.971875,114.90625 C229.971875,118.765625 226.3625,121.453125 221.175,121.453125 Z M221.175,118.375 C223.878125,118.375 225.784375,116.78125 225.784375,114.609375 C225.784375,112.40625 223.878125,110.828125 221.175,110.828125 C218.471875,110.828125 216.565625,112.421875 216.565625,114.609375 C216.565625,116.78125 218.471875,118.375 221.175,118.375 Z M221.175,107.75 C223.440625,107.75 225.065625,106.34375 225.065625,104.40625 C225.065625,102.453125 223.45625,101.046875 221.175,101.046875 C218.878125,101.046875 217.26875,102.453125 217.26875,104.40625 C217.26875,106.34375 218.878125,107.75 221.175,107.75 Z M234.86,121.171875 C233.594375,121.171875 232.61,120.1875 232.61,118.921875 C232.61,117.65625 233.594375,116.671875 234.86,116.671875 C236.11,116.671875 237.094375,117.65625 237.094375,118.921875 C237.094375,120.1875 236.11,121.171875 234.86,121.171875 Z" id="iPadPro2018."></path>
            </g>
        </g>
    </g>
</svg>