<?xml version="1.0" encoding="UTF-8"?>
<svg width="29px" height="36px" viewBox="0 0 29 36" version="1.1" xmlns="http://www.w3.org/2000/svg" xmlns:xlink="http://www.w3.org/1999/xlink">
    <!-- Generator: Sketch 53.2 (72643) - https://sketchapp.com -->
    <title>Shape</title>
    <desc>Created with Sketch.</desc>
    <g id="Page-1" stroke="none" stroke-width="1" fill="none" fill-rule="evenodd">
        <g id="Artboard" transform="translate(-382.000000, -148.000000)" fill="#BABABA" fill-rule="nonzero">
            <path d="M403.544901,157.017495 C400.612346,156.801658 398.125603,158.654208 396.737998,158.654208 C395.330439,158.654208 393.159527,157.064193 390.856354,157.106335 C387.834294,157.153033 385.048252,158.862072 383.490189,161.568286 C380.35012,167.013177 382.68864,175.078858 385.746615,179.494111 C387.242538,181.655325 389.025787,184.086476 391.369437,183.997635 C393.625863,183.909365 394.478151,182.538603 397.204333,182.538603 C399.928805,182.538603 400.69786,183.997635 403.083126,183.951507 C405.51001,183.908795 407.048689,181.751568 408.53321,179.578396 C410.252039,177.07435 410.957813,174.650033 411,174.518481 C410.945841,174.499687 406.267663,172.703517 406.220915,167.320132 C406.178728,162.820594 409.898581,160.655395 410.068469,160.551178 C407.956276,157.445751 404.693637,157.102918 403.544901,157.017495 L403.544901,157.017495 Z M402.165847,153.532013 C403.373459,152.069386 404.186828,150.026925 403.962889,148 C402.224458,148.067694 400.122196,149.162444 398.875879,150.624516 C397.758948,151.921792 396.77804,153.997545 397.044002,155.98674 C398.983148,156.136553 400.958788,154.997969 402.165847,153.532013 Z" id="Shape"></path>
        </g>
    </g>
</svg>
