<?xml version="1.0" encoding="UTF-8"?>
<svg width="183px" height="28px" viewBox="0 0 183 28" version="1.1" xmlns="http://www.w3.org/2000/svg" xmlns:xlink="http://www.w3.org/1999/xlink">
    <!-- Generator: Sketch 53.2 (72643) - https://sketchapp.com -->
    <title>Аксессуары.</title>
    <desc>Created with Sketch.</desc>
    <g id="Page-1" stroke="none" stroke-width="1" fill="none" fill-rule="evenodd">
        <g id="Artboard" transform="translate(-398.000000, -257.000000)" fill="#333333" fill-rule="nonzero">
            <g id="Group-15" transform="translate(355.000000, 128.000000)">
                <g id="watch_os__feuuhi6tkwyi_large_2x">
                    <path d="M58.7470703,151 L57.1357422,145.873047 L49.7089844,145.873047 L48.0976562,151 L43.5566406,151 L50.8955078,129.862305 L56.0957031,129.862305 L63.4492188,151 L58.7470703,151 Z M53.3710938,133.905273 L50.6611328,142.5625 L56.1835938,142.5625 L53.4736328,133.905273 L53.3710938,133.905273 Z M73.3203125,142.357422 L80.2050781,151 L75.0341797,151 L69.4677734,144.027344 L69.3505859,144.027344 L69.3505859,151 L65.0878906,151 L65.0878906,134.87207 L69.3505859,134.87207 L69.3505859,141.405273 L69.4677734,141.405273 L74.9462891,134.87207 L79.8388672,134.87207 L73.3203125,142.357422 Z M95.7744141,140.350586 L91.7753906,140.350586 C91.4091797,138.929688 90.3105469,137.962891 88.6113281,137.962891 C86.4140625,137.962891 85.0224609,139.837891 85.0224609,142.928711 C85.0224609,146.078125 86.4287109,147.894531 88.6259766,147.894531 C90.28125,147.894531 91.4091797,147.05957 91.8046875,145.536133 L95.7890625,145.536133 C95.3789062,149.051758 92.6396484,151.27832 88.5820312,151.27832 C83.7773438,151.27832 80.7304688,148.114258 80.7304688,142.928711 C80.7304688,137.816406 83.7773438,134.59375 88.5527344,134.59375 C92.6835938,134.59375 95.3642578,137.010742 95.7744141,140.350586 Z M104.927734,137.787109 C102.979492,137.787109 101.543945,139.208008 101.397461,141.273438 L108.355469,141.273438 C108.282227,139.164062 106.905273,137.787109 104.927734,137.787109 Z M108.414062,146.078125 L112.354492,146.078125 C111.885742,149.198242 108.970703,151.27832 105.044922,151.27832 C100.137695,151.27832 97.1347656,148.128906 97.1347656,143.001953 C97.1347656,137.875 100.152344,134.59375 104.883789,134.59375 C109.527344,134.59375 112.486328,137.699219 112.486328,142.606445 L112.486328,143.924805 L101.353516,143.924805 L101.353516,144.188477 C101.353516,146.517578 102.862305,148.084961 105.118164,148.084961 C106.729492,148.084961 108.003906,147.323242 108.414062,146.078125 Z M129.022461,140.350586 L125.023438,140.350586 C124.657227,138.929688 123.558594,137.962891 121.859375,137.962891 C119.662109,137.962891 118.270508,139.837891 118.270508,142.928711 C118.270508,146.078125 119.676758,147.894531 121.874023,147.894531 C123.529297,147.894531 124.657227,147.05957 125.052734,145.536133 L129.037109,145.536133 C128.626953,149.051758 125.887695,151.27832 121.830078,151.27832 C117.025391,151.27832 113.978516,148.114258 113.978516,142.928711 C113.978516,137.816406 117.025391,134.59375 121.800781,134.59375 C125.931641,134.59375 128.612305,137.010742 129.022461,140.350586 Z M145.426758,140.350586 L141.427734,140.350586 C141.061523,138.929688 139.962891,137.962891 138.263672,137.962891 C136.066406,137.962891 134.674805,139.837891 134.674805,142.928711 C134.674805,146.078125 136.081055,147.894531 138.27832,147.894531 C139.933594,147.894531 141.061523,147.05957 141.457031,145.536133 L145.441406,145.536133 C145.03125,149.051758 142.291992,151.27832 138.234375,151.27832 C133.429688,151.27832 130.382812,148.114258 130.382812,142.928711 C130.382812,137.816406 133.429688,134.59375 138.205078,134.59375 C142.335938,134.59375 145.016602,137.010742 145.426758,140.350586 Z M149.438477,156.888672 C149.277344,156.888672 147.973633,156.859375 147.8125,156.830078 L147.8125,153.519531 C147.958984,153.548828 148.603516,153.563477 148.779297,153.563477 C150.375977,153.563477 151.298828,153.006836 151.635742,151.717773 L151.782227,151.102539 L146.12793,134.87207 L150.81543,134.87207 L154.301758,147.52832 L154.389648,147.52832 L157.890625,134.87207 L162.402344,134.87207 L156.821289,151.322266 C155.444336,155.438477 153.466797,156.888672 149.438477,156.888672 Z M169.988281,148.070312 C171.96582,148.070312 173.547852,146.839844 173.547852,145.082031 L173.547852,143.895508 L170.164062,144.129883 C168.376953,144.24707 167.424805,144.950195 167.424805,146.136719 C167.424805,147.323242 168.435547,148.070312 169.988281,148.070312 Z M168.59668,151.19043 C165.491211,151.19043 163.162109,149.242188 163.162109,146.356445 C163.162109,143.426758 165.40332,141.771484 169.519531,141.522461 L173.547852,141.273438 L173.547852,140.204102 C173.547852,138.651367 172.478516,137.801758 170.720703,137.801758 C169.167969,137.801758 168.083984,138.62207 167.878906,139.793945 L163.967773,139.793945 C164.084961,136.717773 166.868164,134.59375 170.896484,134.59375 C175.041992,134.59375 177.751953,136.717773 177.751953,139.94043 L177.751953,151 L173.621094,151 L173.621094,148.509766 L173.533203,148.509766 C172.654297,150.194336 170.662109,151.19043 168.59668,151.19043 Z M189.732422,134.681641 C193.819336,134.681641 196.353516,137.801758 196.353516,142.928711 C196.353516,148.055664 193.833984,151.19043 189.791016,151.19043 C187.461914,151.19043 185.660156,150.121094 184.78125,148.290039 L184.693359,148.290039 L184.693359,156.273438 L180.416016,156.273438 L180.416016,134.87207 L184.634766,134.87207 L184.634766,137.625977 L184.722656,137.625977 C185.572266,135.80957 187.461914,134.681641 189.732422,134.681641 Z M188.311523,147.733398 C190.523438,147.733398 191.973633,145.858398 191.973633,142.928711 C191.973633,140.02832 190.523438,138.138672 188.311523,138.138672 C186.128906,138.138672 184.678711,140.057617 184.678711,142.943359 C184.678711,145.84375 186.128906,147.733398 188.311523,147.733398 Z M213.709961,151 L213.709961,134.87207 L217.972656,134.87207 L217.972656,151 L213.709961,151 Z M205.199219,142.738281 L202.738281,142.738281 L202.738281,147.791992 L205.199219,147.791992 C206.825195,147.791992 207.879883,146.766602 207.879883,145.257812 C207.879883,143.749023 206.825195,142.738281 205.199219,142.738281 Z M198.475586,151 L198.475586,134.87207 L202.738281,134.87207 L202.738281,139.55957 L205.873047,139.55957 C209.681641,139.55957 212.113281,141.786133 212.113281,145.287109 C212.113281,148.773438 209.681641,151 205.873047,151 L198.475586,151 Z M223.244141,151.175781 C221.925781,151.175781 220.885742,150.121094 220.885742,148.817383 C220.885742,147.499023 221.925781,146.458984 223.244141,146.458984 C224.5625,146.458984 225.602539,147.499023 225.602539,148.817383 C225.602539,150.121094 224.5625,151.175781 223.244141,151.175781 Z" id="Аксессуары."></path>
                </g>
            </g>
        </g>
    </g>
</svg>