<?xml version="1.0" encoding="UTF-8"?>
<svg width="181px" height="29px" viewBox="0 0 181 29" version="1.1" xmlns="http://www.w3.org/2000/svg" xmlns:xlink="http://www.w3.org/1999/xlink">
    <!-- Generator: Sketch 53.2 (72643) - https://sketchapp.com -->
    <title>AppleWatch.</title>
    <desc>Created with Sketch.</desc>
    <g id="Page-1" stroke="none" stroke-width="1" fill="none" fill-rule="evenodd">
        <g id="Artboard" transform="translate(-389.000000, -256.000000)" fill="#333333" fill-rule="nonzero">
            <path d="M404.600586,279 L402.989258,273.873047 L395.5625,273.873047 L393.951172,279 L389.410156,279 L396.749023,257.862305 L401.949219,257.862305 L409.302734,279 L404.600586,279 Z M399.224609,261.905273 L396.514648,270.5625 L402.037109,270.5625 L399.327148,261.905273 L399.224609,261.905273 Z M420.174844,262.681641 C424.261758,262.681641 426.795938,265.801758 426.795938,270.928711 C426.795938,276.055664 424.276406,279.19043 420.233438,279.19043 C417.904336,279.19043 416.102578,278.121094 415.223672,276.290039 L415.135781,276.290039 L415.135781,284.273438 L410.858438,284.273438 L410.858438,262.87207 L415.077188,262.87207 L415.077188,265.625977 L415.165078,265.625977 C416.014688,263.80957 417.904336,262.681641 420.174844,262.681641 Z M418.753945,275.733398 C420.965859,275.733398 422.416055,273.858398 422.416055,270.928711 C422.416055,268.02832 420.965859,266.138672 418.753945,266.138672 C416.571328,266.138672 415.121133,268.057617 415.121133,270.943359 C415.121133,273.84375 416.571328,275.733398 418.753945,275.733398 Z M438.1075,262.681641 C442.194414,262.681641 444.728594,265.801758 444.728594,270.928711 C444.728594,276.055664 442.209063,279.19043 438.166094,279.19043 C435.836992,279.19043 434.035234,278.121094 433.156328,276.290039 L433.068438,276.290039 L433.068438,284.273438 L428.791094,284.273438 L428.791094,262.87207 L433.009844,262.87207 L433.009844,265.625977 L433.097734,265.625977 C433.947344,263.80957 435.836992,262.681641 438.1075,262.681641 Z M436.686602,275.733398 C438.898516,275.733398 440.348711,273.858398 440.348711,270.928711 C440.348711,268.02832 438.898516,266.138672 436.686602,266.138672 C434.503984,266.138672 433.053789,268.057617 433.053789,270.943359 C433.053789,273.84375 434.503984,275.733398 436.686602,275.733398 Z M446.840938,279 L446.840938,256.851562 L451.118281,256.851562 L451.118281,279 L446.840938,279 Z M461.023594,265.787109 C459.075352,265.787109 457.639805,267.208008 457.49332,269.273438 L464.451328,269.273438 C464.378086,267.164062 463.001133,265.787109 461.023594,265.787109 Z M464.509922,274.078125 L468.450352,274.078125 C467.981602,277.198242 465.066563,279.27832 461.140781,279.27832 C456.233555,279.27832 453.230625,276.128906 453.230625,271.001953 C453.230625,265.875 456.248203,262.59375 460.979648,262.59375 C465.623203,262.59375 468.582188,265.699219 468.582188,270.606445 L468.582188,271.924805 L457.449375,271.924805 L457.449375,272.188477 C457.449375,274.517578 458.958164,276.084961 461.214023,276.084961 C462.825352,276.084961 464.099766,275.323242 464.509922,274.078125 Z M489.711172,264.556641 L485.6975,279 L481.522695,279 L475.926992,257.862305 L480.511953,257.862305 L483.837148,273.169922 L483.954336,273.169922 L487.909414,257.862305 L491.644766,257.862305 L495.599844,273.169922 L495.717031,273.169922 L499.056875,257.862305 L503.641836,257.862305 L498.031484,279 L493.85668,279 L489.843008,264.556641 L489.711172,264.556641 Z M509.826445,276.070312 C511.803984,276.070312 513.386016,274.839844 513.386016,273.082031 L513.386016,271.895508 L510.002227,272.129883 C508.215117,272.24707 507.262969,272.950195 507.262969,274.136719 C507.262969,275.323242 508.273711,276.070312 509.826445,276.070312 Z M508.434844,279.19043 C505.329375,279.19043 503.000273,277.242188 503.000273,274.356445 C503.000273,271.426758 505.241484,269.771484 509.357695,269.522461 L513.386016,269.273438 L513.386016,268.204102 C513.386016,266.651367 512.31668,265.801758 510.558867,265.801758 C509.006133,265.801758 507.922148,266.62207 507.71707,267.793945 L503.805938,267.793945 C503.923125,264.717773 506.706328,262.59375 510.734648,262.59375 C514.880156,262.59375 517.590117,264.717773 517.590117,267.94043 L517.590117,279 L513.459258,279 L513.459258,276.509766 L513.371367,276.509766 C512.492461,278.194336 510.500273,279.19043 508.434844,279.19043 Z M521.313789,259.283203 L525.591133,259.283203 L525.591133,262.87207 L528.579414,262.87207 L528.579414,266.109375 L525.591133,266.109375 L525.591133,273.946289 C525.591133,275.191406 526.206367,275.791992 527.510078,275.791992 C527.890938,275.791992 528.315742,275.762695 528.579414,275.71875 L528.579414,278.882812 C528.139961,278.970703 527.378242,279.058594 526.513984,279.058594 C522.778633,279.058594 521.313789,277.798828 521.313789,274.649414 L521.313789,266.109375 L519.131172,266.109375 L519.131172,262.87207 L521.313789,262.87207 L521.313789,259.283203 Z M545.091172,268.819336 L541.106797,268.819336 C540.872422,267.149414 539.700547,265.962891 537.840195,265.962891 C535.64293,265.962891 534.251328,267.837891 534.251328,270.928711 C534.251328,274.078125 535.64293,275.894531 537.854844,275.894531 C539.656602,275.894531 540.843125,274.913086 541.121445,273.140625 L545.10582,273.140625 C544.856797,276.890625 542.044297,279.27832 537.810899,279.27832 C532.991563,279.27832 529.915391,276.114258 529.915391,270.928711 C529.915391,265.816406 532.991563,262.59375 537.781602,262.59375 C542.117539,262.59375 544.886094,265.230469 545.091172,268.819336 Z M547.07168,279 L547.07168,256.851562 L551.275781,256.851562 L551.275781,265.757812 L551.363672,265.757812 C552.271875,263.72168 553.971094,262.637695 556.432031,262.637695 C560.00625,262.637695 562.07168,264.952148 562.07168,268.6875 L562.07168,279 L557.794336,279 L557.794336,269.581055 C557.794336,267.47168 556.739649,266.197266 554.703516,266.197266 C552.594141,266.197266 551.349024,267.676758 551.349024,269.844727 L551.349024,279 L547.07168,279 Z M567.333438,279.175781 C566.015078,279.175781 564.975039,278.121094 564.975039,276.817383 C564.975039,275.499023 566.015078,274.458984 567.333438,274.458984 C568.651797,274.458984 569.691836,275.499023 569.691836,276.817383 C569.691836,278.121094 568.651797,279.175781 567.333438,279.175781 Z" id="AppleWatch."></path>
        </g>
    </g>
</svg>