<?xml version="1.0" encoding="UTF-8"?>
<svg width="126px" height="47px" viewBox="0 0 126 47" version="1.1" xmlns="http://www.w3.org/2000/svg" xmlns:xlink="http://www.w3.org/1999/xlink">
    <!-- Generator: Sketch 53.2 (72643) - https://sketchapp.com -->
    <title>Group</title>
    <desc>Created with Sketch.</desc>
    <g id="Page-1" stroke="none" stroke-width="1" fill="none" fill-rule="evenodd">
        <g id="Artboard" transform="translate(-392.000000, -166.000000)" fill-rule="nonzero">
            <g id="Group-15" transform="translate(359.000000, 128.000000)">
                <g id="Group" transform="translate(33.000000, 38.000000)">
                    <path d="M35,44.4044266 L36.525523,44.4044266 C36.6231565,45.2072435 37.4347347,45.7323944 38.5087029,45.7323944 C39.5704669,45.7323944 40.3088201,45.2132797 40.3088201,44.4889336 C40.3088201,43.861167 39.8572653,43.498994 38.7466845,43.2394366 L37.6055933,42.9738431 C35.9824368,42.6056338 35.2135732,41.832998 35.2135732,40.5895372 C35.2135732,39.0442656 36.5743397,38 38.4903967,38 C40.4308619,38 41.7123013,39.0382294 41.7489138,40.5714286 L40.2477992,40.5714286 C40.1745741,39.7565392 39.4850377,39.2676056 38.4781925,39.2676056 C37.4835515,39.2676056 36.8123213,39.750503 36.8123213,40.4748491 C36.8123213,41.054326 37.2577741,41.3923541 38.3378444,41.6458753 L39.3507916,41.8752515 C41.1387046,42.2796781 41.895364,43.0100604 41.895364,44.3078471 C41.895364,45.9617706 40.5529038,47 38.4232736,47 C36.3973791,47 35.067123,46.0100604 35,44.4044266 Z M50.8336,45.5392354 L50.8336,46.8551308 L45.134246,46.8551308 L45.134246,38.1448692 L50.8336,38.1448692 L50.8336,39.4607646 L46.7085858,39.4607646 L46.7085858,41.8148893 L50.6078226,41.8148893 L50.6078226,43.0523139 L46.7085858,43.0523139 L46.7085858,45.5392354 L50.8336,45.5392354 Z M55.8298845,39.4064386 L55.8298845,42.3822938 L57.648308,42.3822938 C58.649051,42.3822938 59.2226477,41.832998 59.2226477,40.8913481 C59.2226477,39.9738431 58.6124385,39.4064386 57.6116954,39.4064386 L55.8298845,39.4064386 Z M55.8298845,43.5774648 L55.8298845,46.8551308 L54.2555448,46.8551308 L54.2555448,38.1448692 L57.7947582,38.1448692 C59.6986109,38.1448692 60.8397021,39.1891348 60.8397021,40.8551308 C60.8397021,42.0080483 60.2294929,42.9678068 59.1799331,43.3420523 L61.1020921,46.8551308 L59.3019749,46.8551308 L57.5750828,43.5774648 L55.8298845,43.5774648 Z M65.7383531,46.8551308 L64.1640134,46.8551308 L64.1640134,38.1448692 L65.7383531,38.1448692 L65.7383531,46.8551308 Z M75.0427146,45.5392354 L75.0427146,46.8551308 L69.3433607,46.8551308 L69.3433607,38.1448692 L75.0427146,38.1448692 L75.0427146,39.4607646 L70.9177004,39.4607646 L70.9177004,41.8148893 L74.8169372,41.8148893 L74.8169372,43.0523139 L70.9177004,43.0523139 L70.9177004,45.5392354 L75.0427146,45.5392354 Z M78.104636,44.4044266 L79.630159,44.4044266 C79.7277925,45.2072435 80.5393707,45.7323944 81.6133389,45.7323944 C82.6751029,45.7323944 83.4134561,45.2132797 83.4134561,44.4889336 C83.4134561,43.861167 82.9619013,43.498994 81.8513205,43.2394366 L80.7102293,42.9738431 C79.0870728,42.6056338 78.3182092,41.832998 78.3182092,40.5895372 C78.3182092,39.0442656 79.6789757,38 81.5950326,38 C83.5354979,38 84.8169372,39.0382294 84.8535498,40.5714286 L83.3524351,40.5714286 C83.27921,39.7565392 82.5896736,39.2676056 81.5828285,39.2676056 C80.5881874,39.2676056 79.9169573,39.750503 79.9169573,40.4748491 C79.9169573,41.054326 80.36241,41.3923541 81.4424803,41.6458753 L82.4554276,41.8752515 C84.2433406,42.2796781 85,43.0100604 85,44.3078471 C85,45.9617706 83.6575397,47 81.5279096,47 C79.5020151,47 78.171759,46.0100604 78.104636,44.4044266 Z" id="SERIES" fill="#CC2126"></path>
                    <path d="M94.3448276,47 L94.3448276,45.2972973 L90,45.2972973 L90,43.9126819 C90.7543103,42.4407484 91.7258621,40.8378378 93.6146552,38 L95.8293103,38 L95.8293103,43.981289 L97,43.981289 L97,45.2972973 L95.8293103,45.2972973 L95.8293103,47 L94.3448276,47 Z M91.412069,43.975052 L91.412069,44.018711 L94.3689655,44.018711 L94.3689655,39.1912682 L94.3448276,39.1912682 C92.9387931,41.2993763 92.1060345,42.6278586 91.412069,43.975052 Z" id="4" fill="#CC2126"></path>
                    <g id="apple-watch" fill="#111111">
                        <path d="M45.3990913,21.8498795 L45.3413237,21.8498795 L41.811895,7.32808338 L37.66168,7.32808338 L34.1469087,21.8498795 L34.0891411,21.8498795 L30.82096,7.32808338 L26.4530387,7.32808338 L31.9491528,27.6585979 L36.0700529,27.6585979 L39.7007905,13.7618917 L39.7732156,13.7618917 L43.403091,27.6585979 L47.5541682,27.6585979 L53.0356249,7.32808338 L48.6681347,7.32808338 L45.3990913,21.8498795 Z M97.5658325,7 C92.3598497,7 89.2503139,10.4704029 89.2503139,16.293328 L89.2503139,18.7510676 C89.2503139,24.6343706 92.3456233,28 97.5524683,28 C102.77354,28 105.3761,24.7231618 105.3761,21.0596381 L105.3761,20.6876031 L101.456093,20.6876031 C101.456093,22.7870703 100.443436,24.4257114 97.6227379,24.4257114 C94.7891071,24.4257114 93.4000978,22.6228066 93.4000978,18.7510676 L93.4000978,16.293328 C93.4000978,12.4659845 94.8029024,10.5445436 97.5942852,10.5445436 C100.211934,10.5445436 101.455662,12.3319099 101.455662,14.3425859 L105.375238,14.3425859 L105.375238,14.1339267 C105.3761,10.1725086 102.454093,7 97.5658325,7 Z M59.6452745,7.32808338 L53.2813528,27.658154 L57.3742313,27.658154 L58.803333,22.5344594 L65.0482707,22.5344594 L66.4558174,27.658154 L70.8383961,27.658154 L64.4891319,7.32808338 L59.6452745,7.32808338 Z M59.677176,19.4072344 L61.9301129,11.3338971 L61.9736541,11.3338971 L64.1916718,19.4072344 L59.677176,19.4072344 Z M121.891602,7.32808338 L121.891602,15.4893239 L113.822242,15.4893239 L113.822242,7.32808338 L109.728933,7.32808338 L109.728933,27.6585979 L113.822242,27.6585979 L113.822242,18.9899159 L121.891602,18.9899159 L121.891602,27.6585979 L126,27.6585979 L126,7.32808338 L121.891602,7.32808338 Z M70.7668333,10.8428819 L76.638868,10.8428819 L76.638868,27.6585979 L80.7175201,27.6585979 L80.7175201,10.8428819 L86.6033501,10.8428819 L86.6033501,7.32808338 L70.7668333,7.32808338 L70.7668333,10.8428819 Z" id="Shape"></path>
                        <path d="M16.5496364,6.59512418 C14.2970047,6.42950318 12.3868221,7.85104698 11.3209385,7.85104698 C10.2397278,7.85104698 8.57214975,6.63095774 6.80297556,6.66329535 C4.48159131,6.69912892 2.34150362,8.01055005 1.14468356,10.0871489 C-1.26734898,14.2652553 0.528975906,20.4544114 2.87794877,23.8424314 C4.02703616,25.5008264 5.39683241,27.3663568 7.19709853,27.2981856 C8.93036374,27.2304514 9.58504577,26.1786052 11.6791524,26.1786052 C13.7719454,26.1786052 14.3626919,27.2981856 16.1949258,27.262789 C18.0591274,27.2300144 19.2410584,25.5746785 20.3813875,23.9071067 C21.7016994,21.9856409 22.2438374,20.1253544 22.2762431,20.0244086 C22.2346412,20.0099878 18.6411156,18.6317065 18.6052067,14.5007955 C18.572801,11.0481003 21.4301925,9.38664639 21.560691,9.30667636 C19.9382181,6.9237442 17.432034,6.66067339 16.5496364,6.59512418 L16.5496364,6.59512418 Z M15.1592582,4.35683727 C16.1156633,3.20491921 16.7598354,1.59634168 16.58248,0 C15.2056771,0.0533133547 13.5407266,0.91550392 12.5536675,2.06698498 C11.6690804,3.08867862 10.8922203,4.72347583 11.1028571,6.29010187 C12.6386229,6.40809044 14.2032911,5.5113773 15.1592582,4.35683727 Z" id="Shape"></path>
                    </g>
                </g>
            </g>
        </g>
    </g>
</svg>