<?xml version="1.0" encoding="UTF-8"?>
<svg width="137px" height="24px" viewBox="0 0 137 24" version="1.1" xmlns="http://www.w3.org/2000/svg" xmlns:xlink="http://www.w3.org/1999/xlink">
    <!-- Generator: Sketch 53.2 (72643) - https://sketchapp.com -->
    <title>iPhoneXR.</title>
    <desc>Created with Sketch.</desc>
    <g id="Page-1" stroke="none" stroke-width="1" fill="none" fill-rule="evenodd">
        <g id="Group-15-Copy" transform="translate(-40.000000, -469.000000)" fill="#333333" fill-rule="nonzero">
            <g id="Group-17-Copy" transform="translate(0.000000, 338.000000)">
                <g id="watch_os__feuuhi6tkwyi_large_2x">
                    <path d="M40.5234375,154 L40.5234375,137.87207 L44.8007812,137.87207 L44.8007812,154 L40.5234375,154 Z M42.6621094,136.114258 C41.4023438,136.114258 40.3623047,135.147461 40.3623047,133.873047 C40.3623047,132.598633 41.4023438,131.646484 42.6621094,131.646484 C43.9365234,131.646484 44.9765625,132.598633 44.9765625,133.873047 C44.9765625,135.147461 43.9365234,136.114258 42.6621094,136.114258 Z M47.1720312,132.862305 L55.9903906,132.862305 C60.3263281,132.862305 63.3146093,135.748047 63.3146093,140.098633 C63.3146093,144.43457 60.223789,147.334961 55.770664,147.334961 L51.5958593,147.334961 L51.5958593,154 L47.1720312,154 L47.1720312,132.862305 Z M51.5958593,136.363281 L51.5958593,143.87793 L54.8038672,143.87793 C57.3380468,143.87793 58.817539,142.530273 58.817539,140.113281 C58.817539,137.710938 57.3526953,136.363281 54.8185156,136.363281 L51.5958593,136.363281 Z M64.8216015,154 L64.8216015,131.851562 L69.0257031,131.851562 L69.0257031,140.757812 L69.1135937,140.757812 C70.0217968,138.72168 71.7210156,137.637695 74.1819531,137.637695 C77.7561718,137.637695 79.8216015,139.952148 79.8216015,143.6875 L79.8216015,154 L75.5442578,154 L75.5442578,144.581055 C75.5442578,142.47168 74.4895703,141.197266 72.4534374,141.197266 C70.3440624,141.197266 69.0989453,142.676758 69.0989453,144.844727 L69.0989453,154 L64.8216015,154 Z M89.0922655,154.27832 C84.1996874,154.27832 81.138164,151.143555 81.138164,145.928711 C81.138164,140.772461 84.2436327,137.59375 89.0922655,137.59375 C93.9555468,137.59375 97.0463671,140.757812 97.0463671,145.928711 C97.0463671,151.158203 93.9848437,154.27832 89.0922655,154.27832 Z M89.0922655,150.982422 C91.3481249,150.982422 92.6957812,149.136719 92.6957812,145.928711 C92.6957812,142.75 91.3334765,140.875 89.0922655,140.875 C86.8364062,140.875 85.4741015,142.764648 85.4741015,145.928711 C85.4741015,149.136719 86.8364062,150.982422 89.0922655,150.982422 Z M98.4215233,154 L98.4215233,137.87207 L102.552383,137.87207 L102.552383,140.757812 L102.640273,140.757812 C103.563125,138.72168 105.20375,137.637695 107.679336,137.637695 C111.253555,137.637695 113.275039,139.893555 113.275039,143.658203 L113.275039,154 L108.997695,154 L108.997695,144.551758 C108.997695,142.413086 108.001601,141.197266 105.980117,141.197266 C103.929336,141.197266 102.698867,142.662109 102.698867,144.800781 L102.698867,154 L98.4215233,154 Z M122.38457,140.787109 C120.436328,140.787109 119.000781,142.208008 118.854297,144.273438 L125.812305,144.273438 C125.739062,142.164062 124.362109,140.787109 122.38457,140.787109 Z M125.870898,149.078125 L129.811328,149.078125 C129.342578,152.198242 126.427539,154.27832 122.501758,154.27832 C117.594531,154.27832 114.591601,151.128906 114.591601,146.001953 C114.591601,140.875 117.60918,137.59375 122.340625,137.59375 C126.98418,137.59375 129.943164,140.699219 129.943164,145.606445 L129.943164,146.924805 L118.810351,146.924805 L118.810351,147.188477 C118.810351,149.517578 120.31914,151.084961 122.575,151.084961 C124.186328,151.084961 125.460742,150.323242 125.870898,149.078125 Z M136.047969,154 L142.756953,143.40918 L142.756953,143.291992 L136.091914,132.862305 L141.292109,132.862305 L145.774531,140.479492 L145.891719,140.479492 L150.418086,132.862305 L155.354609,132.862305 L148.440547,143.379883 L148.440547,143.482422 L155.266719,154 L150.227656,154 L145.59875,146.602539 L145.481562,146.602539 L140.823359,154 L136.047969,154 Z M160.225859,139.266113 L160.225859,144.881348 L163.460722,144.881348 C165.316191,144.881348 166.402617,143.819336 166.402617,142.07373 C166.402617,140.364746 165.255156,139.266113 163.424101,139.266113 L160.225859,139.266113 Z M160.225859,147.554688 L160.225859,154 L156.539336,154 L156.539336,136.385254 L163.814726,136.385254 C167.867461,136.385254 170.186797,138.521484 170.186797,142.000488 C170.186797,144.258789 169.014922,146.211914 166.988554,147.005371 L170.699492,154 L166.524687,154 L163.240996,147.554688 L160.225859,147.554688 Z M174.40375,154.175781 C173.08539,154.175781 172.045351,153.121094 172.045351,151.817383 C172.045351,150.499023 173.08539,149.458984 174.40375,149.458984 C175.722109,149.458984 176.762148,150.499023 176.762148,151.817383 C176.762148,153.121094 175.722109,154.175781 174.40375,154.175781 Z" id="iPhoneXR."></path>
                </g>
            </g>
        </g>
    </g>
</svg>
