<?xml version="1.0" encoding="UTF-8"?>
<svg width="137px" height="24px" viewBox="0 0 137 24" version="1.1" xmlns="http://www.w3.org/2000/svg" xmlns:xlink="http://www.w3.org/1999/xlink">
    <!-- Generator: Sketch 53.2 (72643) - https://sketchapp.com -->
    <title>MacBook.</title>
    <desc>Created with Sketch.</desc>
    <g id="Page-1" stroke="none" stroke-width="1" fill="none" fill-rule="evenodd">
        <g id="Artboard" transform="translate(-399.000000, -256.000000)" fill="#333333" fill-rule="nonzero">
            <g id="Group-15" transform="translate(355.000000, 128.000000)">
                <g id="watch_os__feuuhi6tkwyi_large_2x">
                    <path d="M67.140625,129.862305 L67.140625,151 L63.2001953,151 L63.2001953,136.732422 L63.0830078,136.732422 L57.3408203,150.794922 L54.5576172,150.794922 L48.8154297,136.732422 L48.6982422,136.732422 L48.6982422,151 L44.7578125,151 L44.7578125,129.862305 L49.8847656,129.862305 L55.890625,144.847656 L56.0078125,144.847656 L62.0136719,129.862305 L67.140625,129.862305 Z M76.61875,148.070312 C78.5962891,148.070312 80.1783203,146.839844 80.1783203,145.082031 L80.1783203,143.895508 L76.7945313,144.129883 C75.0074219,144.24707 74.0552735,144.950195 74.0552735,146.136719 C74.0552735,147.323242 75.0660156,148.070312 76.61875,148.070312 Z M75.2271485,151.19043 C72.1216797,151.19043 69.7925781,149.242188 69.7925781,146.356445 C69.7925781,143.426758 72.0337891,141.771484 76.15,141.522461 L80.1783203,141.273438 L80.1783203,140.204102 C80.1783203,138.651367 79.1089844,137.801758 77.3511719,137.801758 C75.7984375,137.801758 74.7144531,138.62207 74.509375,139.793945 L70.5982422,139.793945 C70.7154297,136.717773 73.4986328,134.59375 77.5269531,134.59375 C81.672461,134.59375 84.3824219,136.717773 84.3824219,139.94043 L84.3824219,151 L80.2515625,151 L80.2515625,148.509766 L80.1636719,148.509766 C79.2847656,150.194336 77.2925781,151.19043 75.2271485,151.19043 Z M101.931836,140.819336 L97.947461,140.819336 C97.713086,139.149414 96.541211,137.962891 94.6808594,137.962891 C92.4835938,137.962891 91.0919922,139.837891 91.0919922,142.928711 C91.0919922,146.078125 92.4835938,147.894531 94.6955078,147.894531 C96.4972657,147.894531 97.6837891,146.913086 97.9621094,145.140625 L101.946484,145.140625 C101.697461,148.890625 98.884961,151.27832 94.6515625,151.27832 C89.8322266,151.27832 86.7560547,148.114258 86.7560547,142.928711 C86.7560547,137.816406 89.8322266,134.59375 94.6222657,134.59375 C98.9582032,134.59375 101.726758,137.230469 101.931836,140.819336 Z M113.988086,151 L104.495898,151 L104.495898,129.862305 L113.826953,129.862305 C117.79668,129.862305 120.286914,131.898438 120.286914,135.135742 C120.286914,137.450195 118.558398,139.383789 116.317188,139.720703 L116.317188,139.837891 C119.188281,140.057617 121.297656,142.152344 121.297656,144.950195 C121.297656,148.670898 118.499805,151 113.988086,151 Z M108.919727,133.158203 L108.919727,138.651367 L112.230273,138.651367 C114.588672,138.651367 115.936328,137.611328 115.936328,135.824219 C115.936328,134.125 114.749805,133.158203 112.684375,133.158203 L108.919727,133.158203 Z M108.919727,147.704102 L112.860156,147.704102 C115.408984,147.704102 116.785938,146.620117 116.785938,144.598633 C116.785938,142.621094 115.365039,141.566406 112.757617,141.566406 L108.919727,141.566406 L108.919727,147.704102 Z M130.966211,151.27832 C126.073633,151.27832 123.012109,148.143555 123.012109,142.928711 C123.012109,137.772461 126.117578,134.59375 130.966211,134.59375 C135.829492,134.59375 138.920313,137.757812 138.920313,142.928711 C138.920313,148.158203 135.858789,151.27832 130.966211,151.27832 Z M130.966211,147.982422 C133.22207,147.982422 134.569727,146.136719 134.569727,142.928711 C134.569727,139.75 133.207422,137.875 130.966211,137.875 C128.710352,137.875 127.348047,139.764648 127.348047,142.928711 C127.348047,146.136719 128.710352,147.982422 130.966211,147.982422 Z M148.662109,151.27832 C143.769531,151.27832 140.708008,148.143555 140.708008,142.928711 C140.708008,137.772461 143.813477,134.59375 148.662109,134.59375 C153.525391,134.59375 156.616211,137.757812 156.616211,142.928711 C156.616211,148.158203 153.554688,151.27832 148.662109,151.27832 Z M148.662109,147.982422 C150.917969,147.982422 152.265625,146.136719 152.265625,142.928711 C152.265625,139.75 150.90332,137.875 148.662109,137.875 C146.40625,137.875 145.043945,139.764648 145.043945,142.928711 C145.043945,146.136719 146.40625,147.982422 148.662109,147.982422 Z M163.457617,141.390625 L169.038672,134.87207 L173.901953,134.87207 L167.691016,141.800781 L174.194922,151 L169.273047,151 L164.55625,144.378906 L163.399024,145.624023 L163.399024,151 L159.12168,151 L159.12168,128.851562 L163.399024,128.851562 L163.399024,141.390625 L163.457617,141.390625 Z M178.326367,151.175781 C177.008008,151.175781 175.967969,150.121094 175.967969,148.817383 C175.967969,147.499023 177.008008,146.458984 178.326367,146.458984 C179.644727,146.458984 180.684766,147.499023 180.684766,148.817383 C180.684766,150.121094 179.644727,151.175781 178.326367,151.175781 Z" id="MacBook."></path>
                </g>
            </g>
        </g>
    </g>
</svg>