<?xml version="1.0" encoding="UTF-8"?>
<svg width="41px" height="30px" viewBox="0 0 41 30" version="1.1" xmlns="http://www.w3.org/2000/svg" xmlns:xlink="http://www.w3.org/1999/xlink">
    <!-- Generator: Sketch 53.2 (72643) - https://sketchapp.com -->
    <title>tap</title>
    <desc>Created with Sketch.</desc>
    <g id="Page-1" stroke="none" stroke-width="1" fill="none" fill-rule="evenodd">
        <g id="a" transform="translate(-736.000000, -636.000000)" fill-rule="nonzero">
            <g id="Group-2" transform="translate(755.408636, 651.531424) rotate(-35.000000) translate(-755.408636, -651.531424) translate(730.908636, 626.531424)">
                <g id="tap" transform="translate(25.381437, 25.448224) rotate(-30.000000) translate(-25.381437, -25.448224) translate(10.381437, 5.948224)">
                    <path d="M28.056608,24.5884868 C28.055299,25.8872611 28.0533355,27.49567 28.0513721,29.6451468 C28.0477724,33.6548968 25.235753,36.9245531 21.7829871,36.9245531 L13.5612746,36.9245531 C11.2980457,36.9245531 9.20334814,35.4926254 8.09496807,33.200132 L2.37369638,21.7017303 C1.14481826,19.0002804 1.05413227,17.2700972 2.10163838,16.5111809 C3.67289756,15.3728064 5.24171573,17.8628296 5.76825358,18.5733335 L7.81975474,21.2603556 C7.9990852,21.496016 8.29687844,21.5844327 8.56325621,21.4819257 C8.82963389,21.3794188 9.00765537,21.1074758 9.00765537,20.8031251 L9.01300532,3.82596271 C9.01365976,2.61490053 9.86449771,1.62963563 10.8907392,1.62963563 C11.9169806,1.62963563 12.6047814,2.52182777 12.6047814,3.73359442 L12.7745768,13.4613691 C12.7745768,13.5001175 12.7729406,13.5392181 12.7729406,13.578671 C12.7729406,13.5955793 12.7745768,13.6128399 12.7745768,13.6293961 L12.7745768,18.3972046 C12.7745768,18.7956082 13.0746607,19.1186285 13.4447753,19.1186285 C13.8148898,19.1186285 14.1149738,18.7956082 14.1149738,18.3972046 L14.1149738,13.4856749 C14.1149738,12.3172359 14.9442136,11.4041838 15.9439481,11.4041838 L16.0035068,11.4041838 C17.0304027,11.4041838 17.8848404,12.3676088 17.8848404,13.5793754 L18.0940374,19.8111623 C18.0940374,20.2095658 18.3941214,20.5325862 18.7642359,20.5325862 C19.1343504,20.5325862 19.4344344,20.2095658 19.4344344,19.8111623 L19.2252374,14.5191991 C19.2252374,13.3070802 20.0387694,12.3211108 21.0712284,12.3211108 C22.0977971,12.3211108 22.9113291,13.3067279 22.9113291,14.5191991 L23.3297232,21.4864953 C23.3297232,21.8848988 23.6298071,22.2079192 23.9999217,22.2079192 C24.3700362,22.2079192 24.6701202,21.8848988 24.6701202,21.4864953 L24.2517262,15.9997384 C24.2517262,14.7876195 25.1097635,13.8389894 26.1366594,13.8389894 L26.1926184,13.8389894 C27.2168964,13.8389894 28.0516993,14.8038234 28.0543173,16.0120674 C28.0624984,19.8365298 28.0608622,21.1169868 28.056608,24.5884868 Z" id="Path" fill="#FFFFFF"></path>
                    <path d="M26.1926184,12.3961416 L26.1366594,12.3961416 C25.3725415,12.3915623 24.634276,12.6937995 24.0658508,13.2436738 C23.6057438,11.8730389 22.4364961,10.887774 21.0669743,10.887774 C20.2275899,10.8941146 19.4258388,11.2650421 18.8443238,11.9170711 C18.3096048,10.7518025 17.2368945,9.96133608 16.0035068,9.96133608 L15.9439481,9.96133608 C15.2829125,9.95041606 14.6379119,10.1818495 14.1149738,10.61724 L13.9451784,3.73359442 C13.9451784,1.72607749 12.4931908,0.0930105758 10.7270475,0.0930105758 C8.96286777,0.0930105758 7.5184067,1.7250207 7.51742502,3.7311286 L7.67249429,18.7896198 L6.80594857,17.6567589 C6.04608488,16.6383817 4.03936633,13.6109857 1.19052868,15.2087342 C-1.65830897,16.8064826 1.70912955,23.5617316 1.77835203,23.7050652 L6.90543116,33.8666036 C8.24582817,36.6385198 10.7960513,38.3677531 13.5609474,38.3677531 L21.8222566,38.3677531 L21.8222566,38.3600035 C26.0109972,38.3600035 29.4071496,34.4474766 29.4114038,29.6433855 C29.41304,27.4939087 29.4055134,25.8918405 29.4068223,24.5934184 C29.4110766,21.1194525 29.4078041,19.8375866 29.399623,16.0103061 C29.3953688,14.0073686 27.9538529,12.3961416 26.1926184,12.3961416 Z M28.056608,24.5884868 C28.055299,25.8872611 28.0533355,27.49567 28.0513721,29.6451468 C28.0477724,33.6548968 25.235753,36.9245531 21.7829871,36.9245531 L13.5612746,36.9245531 C11.2980457,36.9245531 9.20334814,35.4926254 8.09496807,33.200132 L2.37369638,21.7017303 C1.14481826,19.0002804 1.05413227,17.2700972 2.10163838,16.5111809 C3.67289756,15.3728064 5.24171573,17.8628296 5.76825358,18.5733335 L7.81975474,21.2603556 C7.9990852,21.496016 8.29687844,21.5844327 8.56325621,21.4819257 C8.82963389,21.3794188 9.00765537,21.1074758 9.00765537,20.8031251 L9.01300532,3.82596271 C9.01365976,2.61490053 9.86449771,1.62963563 10.8907392,1.62963563 C11.9169806,1.62963563 12.6047814,2.52182777 12.6047814,3.73359442 L12.7745768,13.4613691 C12.7745768,13.5001175 12.7729406,13.5392181 12.7729406,13.578671 C12.7729406,13.5955793 12.7745768,13.6128399 12.7745768,13.6293961 L12.7745768,18.3972046 C12.7745768,18.7956082 13.0746607,19.1186285 13.4447753,19.1186285 C13.8148898,19.1186285 14.1149738,18.7956082 14.1149738,18.3972046 L14.1149738,13.4856749 C14.1149738,12.3172359 14.9442136,11.4041838 15.9439481,11.4041838 L16.0035068,11.4041838 C17.0304027,11.4041838 17.8848404,12.3676088 17.8848404,13.5793754 L18.0940374,19.8111623 C18.0940374,20.2095658 18.3941214,20.5325862 18.7642359,20.5325862 C19.1343504,20.5325862 19.4344344,20.2095658 19.4344344,19.8111623 L19.2252374,14.5191991 C19.2252374,13.3070802 20.0387694,12.3211108 21.0712284,12.3211108 C22.0977971,12.3211108 22.9113291,13.3067279 22.9113291,14.5191991 L23.3297232,21.4864953 C23.3297232,21.8848988 23.6298071,22.2079192 23.9999217,22.2079192 C24.3700362,22.2079192 24.6701202,21.8848988 24.6701202,21.4864953 L24.2517262,15.9997384 C24.2517262,14.7876195 25.1097635,13.8389894 26.1366594,13.8389894 L26.1926184,13.8389894 C27.2168964,13.8389894 28.0516993,14.8038234 28.0543173,16.0120674 C28.0624984,19.8365298 28.0608622,21.1169868 28.056608,24.5884868 Z" id="Shape" fill="#333333"></path>
                </g>
            </g>
        </g>
    </g>
</svg>