<?xml version="1.0" encoding="UTF-8"?>
<svg width="21px" height="26px" viewBox="0 0 21 26" version="1.1" xmlns="http://www.w3.org/2000/svg" xmlns:xlink="http://www.w3.org/1999/xlink">
    <!-- Generator: Sketch 53.2 (72643) - https://sketchapp.com -->
    <title>Group</title>
    <desc>Created with Sketch.</desc>
    <g id="Page-1" stroke="none" stroke-width="1" fill="none" fill-rule="evenodd">
        <g id="a" transform="translate(-726.000000, -635.000000)" fill="#0478B9" fill-rule="nonzero">
            <g id="Group-2" transform="translate(755.408636, 651.531424) rotate(-35.000000) translate(-755.408636, -651.531424) translate(730.908636, 626.531424)">
                <g id="Group">
                    <path d="M21.2259135,10.5268213 C20.8199174,10.7593637 20.3022797,10.6187516 20.0697374,10.2127556 C19.837195,9.80675951 19.9778071,9.28912184 20.3838031,9.05657949 L24.3937222,6.75981836 C24.7997182,6.52727601 25.3173559,6.66788803 25.5498982,7.0738841 C25.7824406,7.47988017 25.6418286,7.99751784 25.2358325,8.23006019 L21.2259135,10.5268213 Z" id="Line-3"></path>
                    <path d="M3.20951671,20.8434205 C2.80352064,21.0759629 2.28588297,20.9353508 2.05334062,20.5293548 C1.82079827,20.1233587 1.9614103,19.605721 2.36740637,19.3731787 L6.37732539,17.0764175 C6.78332147,16.8438752 7.30095913,16.9844872 7.53350148,17.3904833 C7.76604383,17.7964794 7.62543181,18.314117 7.21943574,18.5466594 L3.20951671,20.8434205 Z" id="Line-3-Copy"></path>
                    <path d="M1.09412955,14.6487854 C0.626252697,14.6487854 0.246963563,14.2694963 0.246963563,13.8016194 C0.246963563,13.3337426 0.626252697,12.9544534 1.09412955,12.9544534 L5.80060729,12.9544534 C6.26848415,12.9544534 6.64777328,13.3337426 6.64777328,13.8016194 C6.64777328,14.2694963 6.26848415,14.6487854 5.80060729,14.6487854 L1.09412955,14.6487854 Z" id="Line-3-Copy-2"></path>
                    <path d="M2.52302766,8.15390049 C2.12790164,7.90333277 2.01071398,7.37989457 2.2612817,6.98476855 C2.51184942,6.58964253 3.03528762,6.47245487 3.43041364,6.72302259 L7.28972538,9.17039101 C7.6848514,9.42095873 7.80203906,9.94439693 7.55147134,10.339523 C7.30090362,10.734649 6.77746542,10.8518366 6.3823394,10.6012689 L2.52302766,8.15390049 Z" id="Line-3-Copy-3"></path>
                    <path d="M6.67467908,3.26248994 C6.43367495,2.86145907 6.56340226,2.34098686 6.96443313,2.09998273 C7.36546401,1.8589786 7.88593622,1.9887059 8.12694035,2.38973678 L10.4801792,6.30552625 C10.7211833,6.70655713 10.591456,7.22702934 10.1904252,7.46803347 C9.78939429,7.7090376 9.26892208,7.57931029 9.02791795,7.17827942 L6.67467908,3.26248994 Z" id="Line-3-Copy-4"></path>
                    <path d="M13.048583,1.09412955 C13.048583,0.626252697 13.4278721,0.246963563 13.895749,0.246963563 C14.3636258,0.246963563 14.742915,0.626252697 14.742915,1.09412955 L14.742915,5.61234818 C14.742915,6.08022504 14.3636258,6.45951417 13.895749,6.45951417 C13.4278721,6.45951417 13.048583,6.08022504 13.048583,5.61234818 L13.048583,1.09412955 Z" id="Line-3-Copy-5"></path>
                    <path d="M19.3727535,2.3681495 C19.6048855,1.96191863 20.1223808,1.82078355 20.5286116,2.05291548 C20.9348425,2.2850474 21.0759776,2.8025427 20.8438457,3.20877357 L18.5847363,7.16221487 C18.3526044,7.56844574 17.8351091,7.70958082 17.4288782,7.4774489 C17.0226474,7.24531697 16.8815123,6.72782167 17.1136442,6.3215908 L19.3727535,2.3681495 Z" id="Line-3-Copy-6"></path>
                </g>
            </g>
        </g>
    </g>
</svg>